<?xml version="1.0" encoding="UTF-8"?>
<svg id="Layer_2" xmlns="http://www.w3.org/2000/svg" version="1.1" viewBox="0 0 556.3 302">
  <!-- Generator: Adobe Illustrator 29.8.3, SVG Export Plug-In . SVG Version: 2.1.1 Build 3)  -->
  <defs>
    <style>
      .st0 {
        fill: #ffcf13;
      }

      .st1 {
        fill: #3e4524;
      }
    </style>
  </defs>
  <g id="Layer_1-2">
    <g>
      <path class="st1" d="M509.3,240.5c14.5,1.8,33.5-16.6,41.9-27.2.9-1.1,2.4-1.3,3.2-1.2,1,.1,2.4,2.5,1.5,4-10.3,18.3-33.5,41.9-56.8,37.9-8.5-1.5-16-7.1-16.9-16.1-.6-5.8-.5-11.9.2-17.7.7-6.3,6.7-27.1,1.8-29.4-3.6-1.7-8.1.8-11.1,3.3-14.8,12.4-27.1,26.7-36.2,43.7-2.4,4.5-3.3,9.5-4.8,14.3-1.8,5.8-11,6.2-14.1,4.4-8-4.6-2.4-18.6-1-26.6-7.8,9.1-15,16.8-24.5,23.6-12.4,8.9-29,12.6-42.8,5-10.1-5.6-13.2-17.5-12.4-28.8l-21.1-2.7c-11.4,20.7-32.1,42-57.2,31.4-9.4-3.9-14.2-12.4-14-22.4.4-21,6.7-27.2,6.8-43.5,0-6.5-4.7-12.2-11.5-11.2-5.1.7-10.1,3.4-13.8,7.1-12.7,12.4-23.7,26.1-32.1,41.7-4.5,8.4-4.1,17.7-5.7,26.6-5,7.3-23.4,2.5-22.2-4.6,3.8-23.5,9.7-46,15.9-68.8,1.1-4.2,1.6-9.2,5.1-12.1,4.6-3.9,13.6-2.4,16.9,2.6,4.6,7.2-5.6,20.6-5.8,29.8,10.8-11.2,11.6-16.7,25-27.3,9.9-7.9,24.3-8.9,34-.2,5.5,4.9,6.1,11.9,7.1,19.7,6.1-7.7,11.3-15.2,19.2-20.9,8.5-6.1,20-8.1,29.4-2.5,7.2,4.3,10.1,13,10.8,21.2s-2.2,15.5-3.7,24.2l19,1.3c4.6-18.7,22.5-43.8,42-46.9,7.4-1.2,16.7,0,20.3,7.7,3.7,7.7,2,17.8-2.7,25-9.2,14.2-23.8,22.3-40.1,25.5-.6,4.8-.4,10.1,2.7,13.8,5.1,6.1,13.6,6,20.7,3,11.9-5,21.5-13.6,29-24,14.8-20.5,12.4-29.8,18.7-43.3,2.2-4.6,8.4-3.9,11.8-2.4,6.4,2.8,8,7.8,5.7,14l-8.4,22.8c10.5-10.4,19.4-24.8,32.5-32.6,7.3-4.4,15.7-7,23.7-4.6,5.8,1.8,9.5,5.7,10.6,11.6,3,16.5-15,49.8,3.6,52.1h0ZM299.1,181.6c-3.2.6-5.2,3.3-6.6,6.8-4.5,11.2,3.6,23.4,15.3,25.6,3.8-9,4-34.7-8.7-32.4h0ZM389.5,182.7c-12-3.6-27.1,27.2-29,37.4,15.2-3.1,37.7-20.2,29-37.4ZM304.1,223.8c-15.6-2.7-24.5-15.4-22.7-30.9-3.3,1.5-3.9,4.9-5.5,7.8-6.4,11.6-10.2,24.6-8.3,37.8.6,3.9,2.9,6.9,5.6,8.2,11.1,5.4,28.1-12.9,30.9-22.9h0Z"/>
      <path class="st1" d="M98,198.1c18.4-3.2,36.9-2.8,55.1-6.6,4-.8,8.9-.2,9.8,4.6.2,1.7-1.7,5.1-2.9,6.4-5.8,6.7-9.5,13.8-13.9,21.3-5.7,9.6-8.7,19.9-12.4,30.5-4.9,14.2-6.7,28.5-4.4,43.2-2.1,3.7-7.3,4.8-11.2,4.5-3.3-.2-7.1-2.7-8.6-6.7-3.3-8.8,4.5-38.1,6.4-49.9-9.9,9.5-18.9,17.4-30.2,23.4-19.2,10.2-41.6,11.4-60.5.7C8.6,260.2-.4,244.6,0,225.9c.3-12.2,2.2-22.9,7.4-34.3,12.4-27.3,31.2-50.8,53.5-70.9,10.1-9.1,20.1-16.5,32.2-22.9,10.3-5.4,21.5-8.1,33.2-8.9,17.9-1.3,35.4,7.2,41.3,24.5,2.1,6.3.6,12.7-4,17.2-6.4,6.4-18.4,6.1-21.4.2-1.4-2.7-.4-5,1.4-7.7,3.1-4.5,4.4-12-.4-16-11.2-9-35.7,3.3-46.3,10.8-29,20.5-52.1,48.4-66.6,80.9-9.2,20.6-10.3,49.6,13.9,59.8,36.6,15.5,73-22.8,87.7-52.1-4.4-1.4-7.8.4-11.5.5-4.7,0-20.4.9-24.1,2-1.8.5-6.6.7-7.2-1.1-1.9-5.6,3.8-8.7,9-9.6h0Z"/>
      <g>
        <path class="st0" d="M412.8,110.1c1.1-1.8,3.1-4.8,6.1-7.9,12.5-12.7,29.9-14.2,51-16,15.7-1.4,26.6.5,30.4,1,18.9,2.7,35.9,11.3,48.8,25.4-17,20.9-42.6,30-68.8,28.5-14-.8-27-3.3-39.3-10.4-10.2-5.9-20-12.5-28.2-20.5h0Z"/>
        <path class="st0" d="M326,124.8l-5.8-7.6c1.6-.4,3.9-1,6.7-1.5,4.9-.9,18.9-3.6,33.2,2,11.7,4.5,21.7,13.3,28.7,25.5-3.3,2.2-6.6,3.4-10.3,4.3-20.9,4.7-40.7-5.8-52.5-22.6h0Z"/>
        <path class="st0" d="M381.9,78.9c-6.5-.5-13-1-19.4-1.5,2.7-3.7,4.3-7.8,6.8-12.2,25.6-46.7,73.4-67.6,125.5-56.5-1.1,7.9-3.7,14.6-7.5,21.4-21.2,38.1-64,53.8-105.4,48.8h0Z"/>
        <path class="st1" d="M270.7,82.5c.6-.6-22.8,19.3-22.6,20.4,16.7-.7,31.6-3.8,47-6.3,28.6-4.5,41.7-8.3,67.4-19.3l61.8-26.3c-11.7,9.1-27,19.4-46,28.4-13.9,6.6-26.9,11.3-38.3,14.6,17.6,2.7,32,4.5,42,5.6,18.3,2.1,34.1,3.5,64.8,6.2,13.8,1.2,25,2.2,32.6,2.8-7.1.4-18.6.9-32.8.9-18.3,0-29.6-.8-68.3-2.7-8.3-.4-21.3-1.1-37.5-1.9h-16c-10.2.2-19.8.8-30.5,2.3,8.5,1.4,18.9,3.8,30.2,8.2,13.8,5.3,24.7,11.9,32.7,17.5-18.3-7.8-45.4-16.4-78.4-16.9-30-.4-45-.6-57.3,7.9-10.9,7.5-19.3,8.7-34.4,15.6-5.1,2.3-10.2.9-12.8-3.6-2.3-4.1-.1-9.9,4.8-11.9,6.3-2.6,12.9-4,19.5-5.9,15.9-4.7,29.7-12.7,43.6-21.5,7.9-5.1,13.6-12.2,20.6-17.7,15.7-12.4,30.4-26.3,49.1-36.8-9.3,11.1-21,18.9-30.7,29.1l-10.8,11.3h0Z"/>
        <path class="st0" d="M270.7,82.5l10.8-11.3c9.7-10.2,21.4-18,30.7-29.1-18.7,10.5-33.4,24.3-49.1,36.8,2.1-17.8,5.2-33.6,18.3-47.5C304.9,6.7,333.5-1,367.1.1c.9,49.3-47.6,86.3-94.3,83.4-1.1,0-1.8-.4-2.1-1h0Z"/>
      </g>
    </g>
  </g>
</svg>